<svg id="Capa_1" data-name="Capa 1" xmlns="http://www.w3.org/2000/svg" xmlns:xlink="http://www.w3.org/1999/xlink" viewBox="0 0 63.75 63.75"><defs><style>.cls-1{fill:none;}.cls-2{clip-path:url(#clip-path);}.cls-3{fill:#282939;}.cls-4{fill:#7188a4;}</style><clipPath id="clip-path"><rect class="cls-1" x="-559.891" y="-324.228" width="1215.153" height="267.705"/></clipPath></defs><title>contact us</title><g class="cls-2"><path class="cls-3" d="M40.462-114.631-106.646-74.063a1.434,1.434,0,0,0-1.012,1.04L-147.811,90a1.435,1.435,0,0,0,2.45,1.315L41.9-112.275A1.436,1.436,0,0,0,40.462-114.631Z"/></g><path class="cls-4" d="M31.938,25.835a6.041,6.041,0,1,0,6.039,6.04A6.047,6.047,0,0,0,31.938,25.835Z"/><path class="cls-4" d="M39.073,17.189H24.679a7.49,7.49,0,0,0-7.491,7.489v14.4a7.489,7.489,0,0,0,7.491,7.488H39.073a7.489,7.489,0,0,0,7.489-7.488V24.678A7.489,7.489,0,0,0,39.073,17.189ZM31.938,41.306a9.431,9.431,0,1,1,9.429-9.431A9.442,9.442,0,0,1,31.938,41.306ZM41.4,24.7a2.129,2.129,0,1,1,2.128-2.129A2.129,2.129,0,0,1,41.4,24.7Z"/></svg>