<svg id="Capa_1" data-name="Capa 1" xmlns="http://www.w3.org/2000/svg" xmlns:xlink="http://www.w3.org/1999/xlink" viewBox="0 0 63.75 63.75"><defs><style>.cls-1,.cls-2{fill:#7188a4;}.cls-2{clip-path:url(#clip-path);}.cls-3{clip-path:url(#clip-path-2);}</style><clipPath id="clip-path"><polygon class="cls-1" points="9.951 29.636 22.059 34.369 26.108 47.523 33.596 41.654 46.42 50.935 53.799 12.815 9.951 29.636"/></clipPath><clipPath id="clip-path-2"><polygon class="cls-2" points="28.941 36.087 27.011 42.586 24.482 33.48 44.625 20.403 28.941 36.087"/></clipPath></defs><title>contact us</title><polygon class="cls-1" points="9.951 29.636 22.059 34.369 26.108 47.523 33.596 41.654 46.42 50.935 53.799 12.815 9.951 29.636"/><polygon class="cls-1" points="28.941 36.087 27.011 42.586 24.482 33.48 44.625 20.403 28.941 36.087"/><g class="cls-3"><polygon class="cls-1" points="44.625 27.854 24.482 27.494 24.482 20.403 44.625 20.403 44.625 27.854"/><polygon class="cls-1" points="24.482 27.494 44.625 27.854 44.625 42.586 24.482 42.586 24.482 27.494"/><polygon class="cls-1" points="53.799 28.018 9.951 27.235 9.951 12.815 53.799 12.815 53.799 28.018"/><polygon class="cls-1" points="9.951 27.235 53.799 28.018 53.799 50.935 9.951 50.935 9.951 27.235"/></g></svg>