<svg id="Capa_1" data-name="Capa 1" xmlns="http://www.w3.org/2000/svg" xmlns:xlink="http://www.w3.org/1999/xlink" viewBox="0 0 63.75 63.75"><defs><style>.cls-1{fill:#7188a4;}.cls-2{clip-path:url(#clip-path);}</style><clipPath id="clip-path"><path class="cls-1" d="M49.567,20.819a.857.857,0,0,1-.174.563,14.009,14.009,0,0,1-2.818,2.944c-.16.12-.43.247-.43.476A22.582,22.582,0,0,1,41.9,38.721c-5.226,6.83-14.164,9.115-22.305,6.866a19.909,19.909,0,0,1-4.022-1.609c-.426-.232-.843-.472-1.253-.743-.1-.084-.182-.161-.094-.217s.156-.046.48,0a14.191,14.191,0,0,0,6.018-.769c1.051-.368,3.309-1.107,3.961-2.1l.047-.048c-.264-.062-.527-.062-.789-.107-1.965-.561-4.588-1.547-5.8-4.858-.078-.194,0-.294.2-.255A8.339,8.339,0,0,0,21.1,34.8a4.323,4.323,0,0,1-.935-.286,7.485,7.485,0,0,1-4.611-5.963,4.535,4.535,0,0,1-.046-.836c.015-.194.1-.256.271-.148a7.434,7.434,0,0,0,2.815.789c-.317-.247-.611-.518-.9-.789-2.144-2.032-2.978-6.167-1.261-8.74.14-.21.233-.21.4-.015,3.923,4.471,8.757,6.557,14.589,7.425.154.023.17,0,.146-.17a7.548,7.548,0,0,1,3.679-7.777,7.4,7.4,0,0,1,3.053-.933l-.053-.015H38.4l-.025.008a7.4,7.4,0,0,1,5.335,1.732,3.346,3.346,0,0,1,.372.379.281.281,0,0,0,.292.077,18.175,18.175,0,0,0,4.246-1.624l.189-.016.008.186a6.582,6.582,0,0,1-1.19,2.167c-.34.423-1.189,1.465-1.765,1.562a14.575,14.575,0,0,0,3.575-1.021c.143-.066.132-.094.132,0Z"/></clipPath></defs><title>contact us</title><path class="cls-1" d="M49.567,20.819a.857.857,0,0,1-.174.563,14.009,14.009,0,0,1-2.818,2.944c-.16.12-.43.247-.43.476A22.582,22.582,0,0,1,41.9,38.721c-5.226,6.83-14.164,9.115-22.305,6.866a19.909,19.909,0,0,1-4.022-1.609c-.426-.232-.843-.472-1.253-.743-.1-.084-.182-.161-.094-.217s.156-.046.48,0a14.191,14.191,0,0,0,6.018-.769c1.051-.368,3.309-1.107,3.961-2.1l.047-.048c-.264-.062-.527-.062-.789-.107-1.965-.561-4.588-1.547-5.8-4.858-.078-.194,0-.294.2-.255A8.339,8.339,0,0,0,21.1,34.8a4.323,4.323,0,0,1-.935-.286,7.485,7.485,0,0,1-4.611-5.963,4.535,4.535,0,0,1-.046-.836c.015-.194.1-.256.271-.148a7.434,7.434,0,0,0,2.815.789c-.317-.247-.611-.518-.9-.789-2.144-2.032-2.978-6.167-1.261-8.74.14-.21.233-.21.4-.015,3.923,4.471,8.757,6.557,14.589,7.425.154.023.17,0,.146-.17a7.548,7.548,0,0,1,3.679-7.777,7.4,7.4,0,0,1,3.053-.933l-.053-.015H38.4l-.025.008a7.4,7.4,0,0,1,5.335,1.732,3.346,3.346,0,0,1,.372.379.281.281,0,0,0,.292.077,18.175,18.175,0,0,0,4.246-1.624l.189-.016.008.186a6.582,6.582,0,0,1-1.19,2.167c-.34.423-1.189,1.465-1.765,1.562a14.575,14.575,0,0,0,3.575-1.021c.143-.066.132-.094.132,0Z"/><g class="cls-2"><polygon class="cls-1" points="49.578 25.599 14.133 24.966 14.133 17.209 49.578 17.209 49.578 25.599"/><polygon class="cls-1" points="14.133 24.966 49.578 25.599 49.578 47.836 14.133 47.836 14.133 24.966"/></g></svg>