<svg id="Capa_1" data-name="Capa 1" xmlns="http://www.w3.org/2000/svg" viewBox="0 0 32.611 32.608"><defs><style>.cls-1{fill:#fff;}</style></defs><title>FOOTER ICONS</title><path class="cls-1" d="M16.345,12.532A3.772,3.772,0,1,0,20.116,16.3,3.776,3.776,0,0,0,16.345,12.532Z"/><path class="cls-1" d="M20.8,7.133H11.812a4.676,4.676,0,0,0-4.678,4.676V20.8a4.676,4.676,0,0,0,4.678,4.676H20.8A4.677,4.677,0,0,0,25.477,20.8v-8.99A4.677,4.677,0,0,0,20.8,7.133Zm-4.455,15.06A5.889,5.889,0,1,1,22.233,16.3,5.9,5.9,0,0,1,16.345,22.193Zm5.908-10.372a1.329,1.329,0,1,1,1.329-1.329A1.329,1.329,0,0,1,22.253,11.821Z"/></svg>