<svg id="Capa_1" data-name="Capa 1" xmlns="http://www.w3.org/2000/svg" xmlns:xlink="http://www.w3.org/1999/xlink" viewBox="0 0 32.611 32.608"><defs><style>.cls-1{fill:#fff;}.cls-2{clip-path:url(#clip-path);}</style><clipPath id="clip-path"><path class="cls-1" d="M27.353,9.4a.538.538,0,0,1-.108.352,8.771,8.771,0,0,1-1.76,1.838c-.1.075-.269.154-.269.3a14.1,14.1,0,0,1-2.654,8.692A13.007,13.007,0,0,1,8.634,24.867a12.445,12.445,0,0,1-2.512-1.005c-.266-.145-.526-.295-.782-.464-.065-.052-.114-.1-.059-.136s.1-.028.3,0a8.863,8.863,0,0,0,3.758-.48,5.758,5.758,0,0,0,2.474-1.311l.028-.029c-.164-.039-.328-.039-.492-.068a4.846,4.846,0,0,1-3.623-3.033c-.049-.121,0-.184.125-.159a5.242,5.242,0,0,0,1.725-.054,2.685,2.685,0,0,1-.584-.179,4.672,4.672,0,0,1-2.88-3.723,2.943,2.943,0,0,1-.029-.523c.01-.12.063-.159.169-.091A4.661,4.661,0,0,0,8.01,14.1c-.2-.154-.381-.323-.559-.492a4.622,4.622,0,0,1-.788-5.459c.088-.13.145-.13.252-.009a14.159,14.159,0,0,0,9.11,4.637c.1.014.106,0,.091-.106a4.715,4.715,0,0,1,2.3-4.857,4.625,4.625,0,0,1,1.906-.583l-.033-.009h.092l-.016,0A4.619,4.619,0,0,1,23.7,8.313a2.078,2.078,0,0,1,.232.236.175.175,0,0,0,.182.049,11.393,11.393,0,0,0,2.652-1.014l.118-.01,0,.116a4.109,4.109,0,0,1-.743,1.353c-.212.264-.742.915-1.1.975a9.07,9.07,0,0,0,2.233-.638c.089-.041.082-.058.082,0Z"/></clipPath></defs><title>FOOTER ICONS</title><path class="cls-1" d="M27.353,9.4a.538.538,0,0,1-.108.352,8.771,8.771,0,0,1-1.76,1.838c-.1.075-.269.154-.269.3a14.1,14.1,0,0,1-2.654,8.692A13.007,13.007,0,0,1,8.634,24.867a12.445,12.445,0,0,1-2.512-1.005c-.266-.145-.526-.295-.782-.464-.065-.052-.114-.1-.059-.136s.1-.028.3,0a8.863,8.863,0,0,0,3.758-.48,5.758,5.758,0,0,0,2.474-1.311l.028-.029c-.164-.039-.328-.039-.492-.068a4.846,4.846,0,0,1-3.623-3.033c-.049-.121,0-.184.125-.159a5.242,5.242,0,0,0,1.725-.054,2.685,2.685,0,0,1-.584-.179,4.672,4.672,0,0,1-2.88-3.723,2.943,2.943,0,0,1-.029-.523c.01-.12.063-.159.169-.091A4.661,4.661,0,0,0,8.01,14.1c-.2-.154-.381-.323-.559-.492a4.622,4.622,0,0,1-.788-5.459c.088-.13.145-.13.252-.009a14.159,14.159,0,0,0,9.11,4.637c.1.014.106,0,.091-.106a4.715,4.715,0,0,1,2.3-4.857,4.625,4.625,0,0,1,1.906-.583l-.033-.009h.092l-.016,0A4.619,4.619,0,0,1,23.7,8.313a2.078,2.078,0,0,1,.232.236.175.175,0,0,0,.182.049,11.393,11.393,0,0,0,2.652-1.014l.118-.01,0,.116a4.109,4.109,0,0,1-.743,1.353c-.212.264-.742.915-1.1.975a9.07,9.07,0,0,0,2.233-.638c.089-.041.082-.058.082,0Z"/><g class="cls-2"><polygon class="cls-1" points="27.36 12.385 5.226 11.99 5.226 7.145 27.36 7.145 27.36 12.385"/><polygon class="cls-1" points="5.226 11.99 27.36 12.385 27.36 26.271 5.226 26.271 5.226 11.99"/></g></svg>