<svg id="Capa_1" data-name="Capa 1" xmlns="http://www.w3.org/2000/svg" viewBox="0 0 32.611 32.608"><defs><style>.cls-1{fill:#fff;}</style></defs><title>YOUTUBE FOOTER</title><path class="cls-1" d="M27.125,11.89A4.791,4.791,0,0,0,26.247,9.7a3.158,3.158,0,0,0-2.212-.935c-3.09-.224-7.725-.224-7.725-.224H16.3s-4.635,0-7.725.224A3.158,3.158,0,0,0,6.364,9.7a4.773,4.773,0,0,0-.877,2.192,33.342,33.342,0,0,0-.221,3.573v1.675a33.342,33.342,0,0,0,.221,3.573A4.777,4.777,0,0,0,6.364,22.9a3.743,3.743,0,0,0,2.434.943c1.767.17,7.507.222,7.507.222s4.64-.007,7.73-.23a3.163,3.163,0,0,0,2.212-.935,4.8,4.8,0,0,0,.878-2.192,33.491,33.491,0,0,0,.22-3.573V15.463A33.491,33.491,0,0,0,27.125,11.89Zm-13.1,7.278v-6.2l5.966,3.113Z"/></svg>